<?xml version="1.0" encoding="UTF-8" standalone="no"?>
<!DOCTYPE svg PUBLIC "-//W3C//DTD SVG 1.1//EN" "http://www.w3.org/Graphics/SVG/1.1/DTD/svg11.dtd">
<svg xmlns="http://www.w3.org/2000/svg" version="1.1" viewBox="0 0 512 100" width="512.0pt" height="100.0pt">
<path d="M 46.46 5.56 C 57.41 4.68 68.53 8.05 77.20 14.78 C 90.75 25.17 97.52 43.59 93.23 60.22 C 89.57 75.79 77.38 88.50 61.95 92.74 C 45.66 97.71 27.11 91.77 16.15 78.89 C 5.85 67.00 2.58 49.83 8.00 35.02 C 13.68 18.64 29.18 6.83 46.46 5.56 Z" fill="#0edb0e" />
<path d="M 47.26 15.41 C 58.96 14.45 70.80 19.77 77.76 29.23 C 86.36 40.50 86.94 57.24 78.89 68.94 C 73.76 76.80 65.28 82.33 56.03 83.90 C 44.15 86.13 31.48 81.52 23.69 72.32 C 16.34 63.73 13.60 51.70 16.64 40.80 C 20.35 26.83 32.86 16.51 47.26 15.41 Z" fill="#ffffff" />
<path d="M 55.70 32.27 C 57.46 34.48 58.74 37.12 60.14 39.57 C 64.26 38.12 68.38 36.67 72.49 35.21 C 64.84 47.26 57.33 59.43 49.97 71.66 C 42.55 59.45 35.06 47.27 27.44 35.18 C 31.51 36.69 35.60 38.13 39.71 39.54 C 41.13 37.07 42.43 34.40 44.20 32.15 C 46.97 28.75 52.99 28.81 55.70 32.27 Z" fill="#0edb0e" />
<path d="M 112.00 31.95 C 122.00 32.06 132.01 31.97 142.01 31.98 C 143.75 32.11 146.35 31.92 147.52 33.47 C 148.40 34.99 147.65 36.65 145.97 37.07 C 141.47 37.89 136.67 37.33 132.11 37.43 C 131.75 45.62 132.28 53.84 131.89 62.01 C 131.62 65.61 127.71 65.62 124.97 65.51 C 122.62 65.42 120.57 64.47 120.49 61.87 C 120.03 53.76 120.88 45.49 120.09 37.38 C 115.76 37.37 111.28 37.81 106.99 37.19 C 104.93 36.78 103.73 35.08 105.16 33.18 C 106.97 31.75 109.81 32.04 112.00 31.95 Z" fill="#cde9c5" />
<path d="M 157.02 32.18 C 160.97 31.75 165.03 32.05 169.00 32.01 C 173.89 32.07 178.90 31.73 183.77 32.27 C 187.01 32.73 190.47 33.78 192.78 36.23 C 195.46 38.97 195.52 44.03 192.69 46.69 C 190.53 48.81 186.91 49.61 184.10 50.50 C 188.12 53.38 192.57 56.68 195.08 61.03 C 195.81 62.35 195.98 63.56 194.59 64.50 C 192.30 65.91 188.58 65.83 186.12 64.92 C 181.19 61.95 178.24 55.80 173.11 52.87 C 170.59 51.43 167.91 51.50 165.11 51.25 C 164.95 55.10 165.24 59.03 164.76 62.85 C 163.97 65.39 161.23 65.49 159.00 65.56 C 156.81 65.51 153.97 65.33 153.47 62.68 C 152.94 58.51 153.35 54.20 153.26 50.00 C 153.37 45.06 152.97 40.06 153.42 35.15 C 153.60 33.16 155.26 32.41 157.02 32.18 Z" fill="#cde9c5" />
<path d="M 211.02 31.93 C 213.11 32.01 215.92 32.39 216.23 34.96 C 216.82 40.25 216.31 45.68 216.46 51.00 C 216.40 54.96 216.79 59.07 216.16 62.99 C 215.54 65.46 212.03 65.57 209.98 65.54 C 208.21 65.48 205.45 65.03 205.00 62.95 C 204.37 58.04 204.88 52.95 204.75 48.00 C 204.87 43.42 204.32 38.63 205.10 34.12 C 206.17 32.01 208.96 31.93 211.02 31.93 Z" fill="#cde9c5" />
<path d="M 230.00 31.95 C 240.00 32.06 250.01 31.97 260.01 31.98 C 261.74 32.11 264.35 31.92 265.52 33.47 C 266.40 34.99 265.65 36.65 263.97 37.07 C 259.47 37.89 254.67 37.33 250.11 37.43 C 249.75 45.62 250.28 53.84 249.89 62.01 C 249.62 65.61 245.71 65.62 242.97 65.51 C 240.62 65.42 238.57 64.47 238.49 61.87 C 238.03 53.76 238.88 45.49 238.09 37.38 C 233.76 37.37 229.28 37.81 224.99 37.19 C 222.93 36.79 221.73 35.07 223.16 33.18 C 224.97 31.75 227.81 32.04 230.00 31.95 Z" fill="#cde9c5" />
<path d="M 290.80 32.30 C 293.89 33.01 295.24 35.76 296.82 38.21 C 300.88 45.10 305.20 51.82 309.36 58.64 C 310.13 60.25 311.43 61.75 310.57 63.58 C 308.51 65.92 304.79 65.79 302.01 65.21 C 299.06 63.90 298.07 59.32 295.58 57.65 C 289.89 57.12 284.07 57.60 278.35 57.48 C 276.16 60.42 274.52 66.19 270.01 65.54 C 267.50 65.56 265.10 65.37 263.72 62.97 C 263.85 60.95 265.16 58.91 266.16 57.18 C 270.23 50.56 274.23 43.89 278.19 37.19 C 279.30 35.47 280.56 33.30 282.58 32.57 C 285.17 31.72 288.15 31.75 290.80 32.30 Z" fill="#cde9c5" />
<path d="M 322.87 32.08 C 325.90 31.80 328.73 31.63 331.03 33.96 C 337.52 40.21 343.66 46.84 350.12 53.14 C 350.16 48.09 350.12 43.04 350.10 37.99 C 350.20 36.35 349.96 34.40 351.09 33.07 C 353.34 31.53 357.08 31.63 359.51 32.64 C 361.40 33.43 360.86 36.36 361.03 38.00 C 360.84 46.26 361.29 54.60 360.81 62.83 C 359.70 65.99 355.63 65.54 352.97 65.47 C 350.03 65.37 348.26 63.63 346.29 61.71 C 340.69 56.01 335.22 50.18 329.60 44.50 C 329.50 50.28 329.79 56.10 329.50 61.87 C 329.46 64.40 327.41 65.53 325.09 65.52 C 322.58 65.61 319.16 65.72 318.58 62.56 C 318.13 58.08 318.51 53.50 318.41 49.00 C 318.50 44.49 318.13 39.90 318.60 35.41 C 318.86 33.28 321.04 32.46 322.87 32.08 Z" fill="#15bd15" />
<path d="M 379.01 31.94 C 381.73 31.97 384.41 32.69 384.39 35.94 C 384.50 44.62 384.58 53.37 384.36 62.05 C 384.29 64.47 382.15 65.34 380.05 65.48 C 377.65 65.62 373.88 65.72 372.92 62.94 C 372.54 60.00 372.76 56.96 372.73 54.00 C 372.87 47.68 372.49 41.31 372.87 35.01 C 373.22 32.10 376.74 31.89 379.01 31.94 Z" fill="#15bd15" />
<path d="M 403.02 32.01 C 404.83 32.26 406.73 32.98 406.99 35.05 C 407.74 41.82 406.18 49.34 407.85 55.93 C 409.87 59.97 416.09 60.55 419.98 59.70 C 423.10 59.21 425.73 57.36 426.23 54.08 C 426.77 47.94 426.06 41.70 426.52 35.56 C 426.53 33.11 428.78 32.01 430.95 31.97 C 433.12 31.89 436.75 31.78 437.84 34.16 C 438.69 38.30 438.12 42.78 438.28 47.00 C 438.18 50.83 438.64 56.08 436.33 59.35 C 433.55 63.38 427.58 64.93 422.97 65.33 C 416.37 65.65 408.77 65.85 402.52 63.42 C 398.48 61.82 395.76 58.22 395.49 53.86 C 395.25 48.58 395.48 43.27 395.37 37.98 C 395.49 36.54 395.09 34.35 396.32 33.31 C 398.01 31.66 400.84 31.90 403.02 32.01 Z" fill="#15bd15" />
<path d="M 460.01 31.96 C 462.05 32.13 464.90 31.76 465.96 33.99 C 468.79 39.94 470.67 46.36 473.31 52.41 C 475.92 45.88 478.22 39.25 481.01 32.80 C 484.96 31.68 488.96 31.88 493.06 32.06 C 495.11 32.32 497.50 32.56 497.63 35.14 C 497.92 43.07 497.62 51.06 497.76 59.01 C 497.53 61.82 498.39 64.42 494.91 65.31 C 492.54 65.65 487.62 66.10 486.93 62.95 C 486.43 56.84 486.90 50.63 486.70 44.50 C 484.30 50.54 482.32 56.79 479.69 62.73 C 478.27 65.75 474.74 65.57 471.90 65.51 C 469.20 65.53 467.32 63.99 466.34 61.55 C 464.05 56.07 462.26 50.38 459.91 44.91 C 459.77 50.29 459.98 55.67 459.84 61.04 C 459.74 62.74 459.69 64.27 457.90 65.02 C 455.67 65.74 452.40 65.86 450.30 64.71 C 448.69 63.77 448.96 61.61 448.85 60.02 C 448.89 52.33 448.85 44.65 448.86 36.97 C 449.03 35.20 448.69 33.38 450.74 32.65 C 453.59 31.64 457.01 32.02 460.01 31.96 Z" fill="#15bd15" />
<path d="M 164.98 37.58 C 169.91 37.58 175.85 36.71 180.50 38.55 C 183.00 39.78 183.75 42.52 181.35 44.33 C 176.81 46.87 170.07 45.84 165.01 45.96 C 164.99 43.17 164.98 40.37 164.98 37.58 Z" fill="#transparent" />
<path d="M 49.98 39.38 C 51.92 42.69 53.73 46.07 55.79 49.31 C 55.26 50.00 54.73 50.69 54.19 51.38 C 52.80 48.82 51.36 46.30 49.89 43.78 C 48.50 46.31 47.07 48.82 45.64 51.33 C 45.09 50.75 44.53 50.16 43.98 49.57 C 45.98 46.18 47.87 42.70 49.98 39.38 Z" fill="#transparent" />
<path d="M 287.07 41.57 C 289.34 44.88 291.23 48.40 293.09 51.95 C 289.11 52.04 285.14 52.04 281.17 51.93 C 283.02 48.40 284.87 44.90 287.07 41.57 Z" fill="#transparent" />
<path d="M 34.24 48.89 C 38.90 56.29 43.00 64.06 47.58 71.51 C 42.88 71.47 38.12 71.81 33.45 71.38 C 28.53 70.66 25.40 65.17 27.61 60.62 C 29.68 56.64 32.06 52.82 34.24 48.89 Z" fill="#0edb0e" />
<path d="M 65.58 48.91 C 67.77 52.88 70.28 56.69 72.29 60.74 C 74.15 65.33 71.42 70.45 66.54 71.35 C 61.83 71.84 57.00 71.45 52.26 71.53 C 56.78 64.04 61.00 56.36 65.58 48.91 Z" fill="#0edb0e" />
<path d="M 46.55 52.91 C 47.70 53.68 48.82 54.49 49.93 55.30 C 51.13 54.41 52.34 53.55 53.58 52.70 C 52.58 54.78 51.55 56.80 50.00 58.52 C 48.39 56.91 47.39 55.01 46.55 52.91 Z" fill="#transparent" />
</svg>