<?xml version="1.0" encoding="UTF-8"?>
<svg xmlns="http://www.w3.org/2000/svg" xmlns:xlink="http://www.w3.org/1999/xlink" width="38px" height="38px" viewBox="0 0 38 38" version="1.1">
<g id="surface1">
<path style=" stroke:none;fill-rule:nonzero;fill:rgb(5.490196%,85.882353%,5.490196%);fill-opacity:1;" d="M 17.8125 2.054688 C 18.527344 2.03125 19.25 2.035156 19.96875 2.050781 C 21.355469 2.15625 22.722656 2.386719 24.046875 2.828125 C 26.277344 3.515625 28.359375 4.710938 30.113281 6.25 C 31.730469 7.675781 33.050781 9.390625 34.03125 11.3125 C 34.945312 13.160156 35.574219 15.195312 35.753906 17.253906 C 35.859375 18.101562 35.8125 18.964844 35.816406 19.816406 C 35.734375 21.484375 35.40625 23.148438 34.816406 24.714844 C 33.25 29.109375 29.765625 32.746094 25.453125 34.527344 C 23.902344 35.171875 22.230469 35.621094 20.550781 35.75 C 20.058594 35.824219 19.570312 35.816406 19.074219 35.820312 C 15.148438 35.902344 11.195312 34.472656 8.171875 31.972656 C 5.976562 30.164062 4.25 27.796875 3.207031 25.144531 C 2.417969 23.109375 1.976562 20.964844 2.039062 18.777344 C 2.007812 17.878906 2.125 16.992188 2.25 16.105469 C 2.59375 14.222656 3.222656 12.367188 4.167969 10.699219 C 5.109375 9 6.355469 7.464844 7.824219 6.191406 C 9.097656 5.074219 10.542969 4.171875 12.085938 3.46875 C 13.039062 3.074219 14.023438 2.722656 15.03125 2.488281 C 15.945312 2.253906 16.871094 2.148438 17.8125 2.054688 Z M 17.8125 2.054688 "/>
<path style=" stroke:none;fill-rule:nonzero;fill:rgb(100%,100%,100%);fill-opacity:1;" d="M 20.5625 5.886719 C 21.707031 6.003906 22.839844 6.304688 23.90625 6.746094 C 24.628906 7.015625 25.273438 7.390625 25.945312 7.765625 C 26.273438 7.976562 26.589844 8.214844 26.910156 8.4375 C 28.488281 9.617188 29.75 11.15625 30.671875 12.890625 C 30.890625 13.390625 31.132812 13.882812 31.308594 14.398438 C 31.710938 15.425781 31.925781 16.496094 32.046875 17.585938 C 32.019531 18.191406 32.191406 18.746094 32.101562 19.347656 C 32.042969 19.699219 32.0625 20.050781 32.039062 20.40625 C 31.933594 21.046875 31.859375 21.683594 31.679688 22.308594 C 31.453125 23.074219 31.269531 23.800781 30.898438 24.511719 C 30.75 24.792969 30.609375 25.074219 30.457031 25.347656 C 30.382812 25.472656 30.308594 25.597656 30.230469 25.722656 C 30.097656 25.917969 29.976562 26.113281 29.859375 26.316406 C 29.730469 26.488281 29.597656 26.652344 29.472656 26.824219 C 28.660156 27.953125 27.640625 28.882812 26.511719 29.695312 C 26.320312 29.8125 26.136719 29.945312 25.945312 30.070312 C 25.765625 30.164062 25.59375 30.261719 25.421875 30.371094 C 24.910156 30.644531 24.386719 30.910156 23.839844 31.113281 C 22.203125 31.785156 20.394531 32.082031 18.628906 32.03125 C 16.199219 32 13.777344 31.21875 11.746094 29.890625 C 9.535156 28.4375 7.777344 26.320312 6.792969 23.863281 C 6.457031 23.03125 6.191406 22.183594 6.042969 21.296875 C 5.917969 20.707031 5.898438 20.113281 5.835938 19.515625 C 5.808594 19 5.808594 18.476562 5.871094 17.964844 C 5.96875 16.089844 6.566406 14.222656 7.449219 12.578125 C 8.070312 11.488281 8.820312 10.445312 9.722656 9.574219 C 10.457031 8.8125 11.320312 8.207031 12.203125 7.636719 C 13.515625 6.882812 14.914062 6.320312 16.402344 6.03125 C 17.765625 5.765625 19.183594 5.734375 20.5625 5.886719 Z M 20.5625 5.886719 "/>
<path style=" stroke:none;fill-rule:nonzero;fill:rgb(5.490196%,85.882353%,5.490196%);fill-opacity:1;" d="M 20.199219 11.5 C 20.746094 11.742188 21.160156 12.164062 21.472656 12.667969 C 21.941406 13.429688 22.367188 14.21875 22.816406 14.996094 C 24.351562 14.445312 25.890625 13.917969 27.433594 13.398438 C 24.609375 17.976562 21.769531 22.570312 18.941406 27.148438 C 16.128906 22.558594 13.285156 17.984375 10.460938 13.402344 C 11.996094 13.910156 13.519531 14.457031 15.050781 14.980469 C 15.5 14.214844 15.925781 13.4375 16.386719 12.675781 C 16.566406 12.386719 16.765625 12.121094 17.027344 11.902344 C 17.894531 11.171875 19.171875 11.011719 20.199219 11.5 Z M 20.199219 11.5 "/>
<path style=" stroke:none;fill-rule:nonzero;fill:rgb(100%,100%,100%);fill-opacity:1;" d="M 18.933594 14.972656 C 19.53125 15.972656 20.089844 16.988281 20.683594 17.988281 C 20.816406 18.226562 20.984375 18.460938 21.070312 18.714844 C 20.976562 18.96875 20.824219 19.210938 20.664062 19.425781 C 20.597656 19.441406 20.554688 19.417969 20.527344 19.355469 C 19.992188 18.4375 19.460938 17.519531 18.933594 16.601562 C 18.363281 17.554688 17.847656 18.546875 17.242188 19.480469 C 17.085938 19.230469 16.910156 18.976562 16.789062 18.707031 C 16.886719 18.4375 17.070312 18.199219 17.207031 17.949219 C 17.75 17.03125 18.261719 16.09375 18.808594 15.179688 C 18.851562 15.109375 18.894531 15.042969 18.933594 14.972656 Z M 18.933594 14.972656 "/>
<path style=" stroke:none;fill-rule:nonzero;fill:rgb(5.490196%,85.882353%,5.490196%);fill-opacity:1;" d="M 13.011719 18.507812 C 13.695312 19.625 14.316406 20.773438 14.988281 21.898438 C 15.996094 23.640625 16.996094 25.382812 18 27.125 C 16.601562 27.136719 15.203125 27.125 13.804688 27.128906 C 13.371094 27.128906 12.917969 27.136719 12.488281 27.0625 C 12.074219 26.972656 11.675781 26.765625 11.335938 26.515625 C 10.453125 25.839844 10.023438 24.6875 10.242188 23.597656 C 10.367188 22.9375 10.765625 22.429688 11.085938 21.847656 C 11.71875 20.726562 12.375 19.625 13.011719 18.507812 Z M 13.011719 18.507812 "/>
<path style=" stroke:none;fill-rule:nonzero;fill:rgb(5.490196%,85.882353%,5.490196%);fill-opacity:1;" d="M 24.855469 18.515625 C 25.476562 19.59375 26.109375 20.660156 26.71875 21.746094 C 27.035156 22.316406 27.472656 22.886719 27.601562 23.527344 C 27.734375 24.1875 27.65625 24.890625 27.351562 25.496094 C 27.03125 26.144531 26.46875 26.640625 25.800781 26.917969 C 25.335938 27.132812 24.773438 27.125 24.269531 27.128906 C 22.800781 27.125 21.332031 27.136719 19.863281 27.125 C 20.773438 25.542969 21.691406 23.960938 22.597656 22.375 C 23.367188 21.101562 24.074219 19.78125 24.855469 18.515625 Z M 24.855469 18.515625 "/>
<path style=" stroke:none;fill-rule:nonzero;fill:rgb(100%,100%,100%);fill-opacity:1;" d="M 20.21875 20.082031 C 20.160156 20.214844 20.109375 20.351562 20.03125 20.476562 C 19.765625 20.90625 19.503906 21.335938 19.25 21.773438 C 19.175781 21.898438 19.097656 22.019531 19 22.125 C 18.808594 22.136719 18.71875 21.878906 18.625 21.75 C 18.328125 21.214844 17.945312 20.714844 17.707031 20.148438 C 18.152344 20.410156 18.515625 20.789062 18.933594 21.089844 C 19.367188 20.761719 19.769531 20.386719 20.21875 20.082031 Z M 20.21875 20.082031 "/>
</g>
</svg>
